<?xml version="1.0" standalone="no"?>
<!DOCTYPE svg PUBLIC "-//W3C//DTD SVG 20010904//EN"
 "http://www.w3.org/TR/2001/REC-SVG-20010904/DTD/svg10.dtd">
<svg version="1.0" xmlns="http://www.w3.org/2000/svg"
 width="700.000000pt" height="700.000000pt" viewBox="0 0 700.000000 700.000000"
 preserveAspectRatio="xMidYMid meet">
<metadata>
Created by potrace 1.14, written by Peter Selinger 2001-2017
</metadata>
<g transform="translate(0.000000,700.000000) scale(0.100000,-0.100000)"
fill="#000000" stroke="none">
<path d="M2237 5454 c-1 -1 -29 -4 -62 -7 -65 -6 -70 -7 -160 -31 -397 -104
-713 -439 -832 -884 -28 -105 -28 -106 -38 -182 -46 -331 112 -764 461 -1261
64 -90 267 -352 298 -385 6 -6 31 -35 56 -64 25 -29 56 -65 70 -80 14 -15 59
-65 100 -110 138 -153 546 -555 676 -667 12 -10 52 -45 90 -79 124 -110 228
-199 319 -274 50 -41 92 -77 95 -80 8 -8 91 -74 143 -113 l49 -37 41 32 c62
48 311 251 317 258 3 3 37 32 75 64 39 32 93 79 121 105 28 25 86 78 129 116
44 39 108 97 144 130 109 100 471 464 566 569 50 55 95 104 100 110 88 96 330
402 432 548 206 294 370 644 418 893 30 157 25 313 -14 465 -66 254 -183 470
-342 631 -272 274 -619 379 -1029 313 -61 -10 -239 -74 -308 -111 -278 -150
-491 -392 -608 -692 -21 -55 -41 -101 -44 -101 -3 0 -11 19 -18 43 -7 23 -33
85 -58 137 -213 451 -625 733 -1087 744 -53 1 -98 2 -100 0z"/>
</g>
</svg>
